PathFileType	4	(X/Y/Z)	E:\Studenten\Marcel_BSc\Ayumi_25_09_2024\25-09-2024\sumo_dl_80kg01.trc
DataRate	CameraRate	NumFrames	NumMarkers	Units	OrigDataRate	OrigDataStartFrame	OrigNumFrames
200.0	200.0	7	52	mm	200.0	696	2782	
Frame#	Time	RSACR			LSACR			USACR			LBAR			RBAR			RHEE			RMT1			RMT5			RMT2			LHEE			LMT1			LMT5			LMT2			LMMAL			LLMAL			LTIB4			LTIB2			LTIB3			LTIB1			RMMAL			RLMAL			RTIB1			RTIB2			RTIB3			RTHI1			RTHI4			RTHI3			RTHI2			LTHI1			LTHI4			LTHI3			LTHI2			FHD			LBHD			RBHD			C7			T10			CLAV			LSHO			RSHO			LRAD			LUL			LRFIN			RRAD			RUL			RUFIN			LDUPA			LMUPA			LUUPA			RDUPA			RUUPA			RMUPA			
		X1	Y1	Z1	X2	Y2	Z2	X3	Y3	Z3	X4	Y4	Z4	X5	Y5	Z5	X6	Y6	Z6	X7	Y7	Z7	X8	Y8	Z8	X9	Y9	Z9	X10	Y10	Z10	X11	Y11	Z11	X12	Y12	Z12	X13	Y13	Z13	X14	Y14	Z14	X15	Y15	Z15	X16	Y16	Z16	X17	Y17	Z17	X18	Y18	Z18	X19	Y19	Z19	X20	Y20	Z20	X21	Y21	Z21	X22	Y22	Z22	X23	Y23	Z23	X24	Y24	Z24	X25	Y25	Z25	X26	Y26	Z26	X27	Y27	Z27	X28	Y28	Z28	X29	Y29	Z29	X30	Y30	Z30	X31	Y31	Z31	X32	Y32	Z32	X33	Y33	Z33	X34	Y34	Z34	X35	Y35	Z35	X36	Y36	Z36	X37	Y37	Z37	X38	Y38	Z38	X39	Y39	Z39	X40	Y40	Z40	X41	Y41	Z41	X42	Y42	Z42	X43	Y43	Z43	X44	Y44	Z44	X45	Y45	Z45	X46	Y46	Z46	X47	Y47	Z47	X48	Y48	Z48	X49	Y49	Z49	X50	Y50	Z50	X51	Y51	Z51	X52	Y52	Z52	
696	3.475	419.29926	822.0047	-964.55237	419.17267	823.64661	-905.56885	403.02878	830.73206	-934.50427	212.89854	252.03061	196.39433	162.7653	244.34857	-2023.9658	276.90176	34.223179	-1343.4606	116.09173	43.845654	-1455.9844	184.47208	29.924866	-1501.9152	146.40245	40.672611	-1483.7762	309.34729	42.768204	-494.81415	142.71709	49.080975	-398.617	207.02611	32.326004	-349.65976	167.54431	46.459698	-368.93881	249.47505	69.839806	-506.52908	290.40536	72.944504	-437.6944	301.54355	210.6889	-480.94208	284.50473	273.9827	-478.07794	321.13058	265.28342	-512.35455	313.33392	307.32181	-515.40283	226.4084	66.255806	-1344.1953	270.99893	71.763191	-1403.7908	257.76828	319.55713	-1373.6981	297.13336	305.6586	-1344.9114	270.31427	255.40433	-1377.1597	411.9668	690.73334	-1138.4669	319.78693	601.69202	-1230.9592	356.97482	566.71838	-1228.2979	371.88605	622.55768	-1196.2147	425.77344	684.60016	-734.97748	372.50888	574.04309	-646.36377	329.82904	601.8902	-636.30261	372.05069	633.67194	-675.02808	-204.095	1067.4888	-795.28516	-154.14928	1167.9136	-812.93884	-151.15031	1170.219	-937.95978	42.398102	1096.8949	-897.16284	360.16934	865.6391	-928.96606	18.339664	957.35242	-907.13885	51.128052	1021.717	-732.0553	1.5368736	1014.7966	-1050.5043	99.489967	494.16971	-655.75256	105.0512	500.51944	-616.23682	103.27895	406.61014	-659.86914	68.063583	504.61404	-1169.3275	77.112045	511.1456	-1215.6886	71.007042	418.47034	-1171.2876	68.723763	800.48035	-691.44421	102.02233	783.60565	-658.63934	84.51944	858.2179	-678.43158	36.588737	772.25549	-1103.2356	34.76096	848.96234	-1124.3724	48.273216	792.52332	-1147.4218
697	3.48	419.44601	820.97125	-964.59137	419.29602	822.65302	-905.61584	403.121	829.67358	-934.51459	212.97226	252.00856	196.22142	162.76627	244.34714	-2023.9463	276.89764	34.253822	-1343.4797	116.10247	43.826347	-1456.0183	184.45676	29.919498	-1501.9366	146.42044	40.667786	-1483.7969	309.34012	42.796749	-494.80569	142.73172	49.079063	-398.58862	207.02866	32.318245	-349.64688	167.56729	46.46928	-368.90594	249.45534	69.871895	-506.47675	290.41357	72.979088	-437.64362	301.44022	210.71474	-480.69302	284.37067	274.02985	-477.77451	320.94897	265.37112	-512.10974	313.15457	307.40909	-515.08667	226.3972	66.316063	-1344.2614	271.01059	71.767281	-1403.8698	257.71506	319.5806	-1374.1505	297.078	305.71674	-1345.2812	270.2818	255.43373	-1377.484	412.43619	689.97675	-1138.5763	320.23898	601.31323	-1231.2791	357.33664	566.27484	-1228.7089	372.30133	622.03882	-1196.4258	426.21179	683.9068	-734.94135	372.73676	573.56915	-646.14404	330.17651	601.5368	-636.12183	372.5065	633.09296	-674.84283	-204.95404	1064.2871	-795.30542	-155.27386	1164.8624	-812.94519	-152.32684	1167.2964	-938.06207	41.352184	1094.4564	-897.31616	360.12839	864.50372	-929.06567	17.921175	954.80701	-907.27081	50.291641	1019.359	-731.93622	0.50496185	1012.0685	-1050.8403	100.26955	491.77435	-656.3761	105.73568	498.11288	-616.8269	104.41428	404.28394	-660.46149	69.081062	501.52219	-1167.7404	77.827324	507.92551	-1214.1952	72.515587	415.40988	-1169.3671	68.498657	798.07629	-691.79474	101.83035	781.25922	-658.99438	84.121315	855.85223	-678.68933	36.477623	769.3551	-1102.6345	34.434105	845.98663	-1124.0667	48.079933	789.52771	-1146.9208
698	3.485	419.59692	819.97272	-964.62372	419.3147	821.74493	-905.53516	403.24918	828.6217	-934.57159	212.97292	252.00975	196.2205	162.76413	244.33951	-2023.9608	276.88406	34.30574	-1343.4847	116.13477	43.837677	-1456.0398	184.45996	29.890648	-1501.9818	146.44023	40.657944	-1483.8248	309.33826	42.83144	-494.79135	142.74716	49.076706	-398.57236	207.03629	32.31147	-349.6243	168.15434	46.336067	-368.58405	249.43716	69.934189	-506.41556	290.40335	72.990082	-437.58841	301.32462	210.75291	-480.45694	284.21579	274.039	-477.46933	320.99539	265.43616	-511.75046	312.99524	307.50214	-514.74768	226.39442	66.365685	-1344.3083	271.0303	71.741409	-1403.9148	257.69397	319.603	-1374.5955	296.99789	305.88062	-1345.771	270.79813	255.46822	-1377.7328	412.96182	689.23016	-1138.6807	320.71799	600.95538	-1231.5326	357.69925	565.81964	-1229.0914	372.79224	621.44733	-1196.6169	426.63293	683.20703	-734.8938	372.96652	573.0304	-645.99567	330.48157	601.19238	-635.97498	372.90164	632.55756	-674.75891	-205.77942	1061.0867	-795.3468	-156.27362	1161.8024	-812.88727	-153.44241	1164.2621	-938.0993	40.344692	1092.0535	-897.46814	360.06436	863.36414	-929.1781	17.483057	952.2677	-907.39441	49.492477	1016.8167	-732.32788	-0.26370528	1009.2169	-1050.9788	101.07345	489.39133	-656.95428	106.43073	495.7272	-617.41571	105.74857	401.9068	-660.99457	70.083473	498.52454	-1166.2019	78.545593	504.7598	-1212.743	74.220993	412.3703	-1167.4773	68.348846	795.70398	-692.17175	101.63618	778.94	-659.30835	83.805771	853.46423	-679.01807	36.410511	766.49915	-1102.1305	34.122776	843.04999	-1123.8005	47.923546	786.54852	-1146.4744
699	3.49	419.73831	818.95551	-964.65216	419.53799	820.65228	-905.68628	403.33646	827.56549	-934.61407	212.97891	252.01028	196.22205	162.77275	244.34647	-2023.9463	276.88287	34.337723	-1343.5188	116.14181	43.843719	-1456.0958	184.47794	29.858152	-1502.0144	146.45131	40.64822	-1483.8475	309.33975	42.85231	-494.77747	142.75641	49.06646	-398.5444	207.05757	32.294529	-349.60767	168.03133	46.3582	-368.62976	249.43221	69.982979	-506.35016	290.39655	72.951111	-437.53967	301.25385	210.8168	-480.21692	284.0574	274.04828	-477.19522	320.82541	265.51001	-511.49255	312.81326	307.57904	-514.44519	226.39799	66.413139	-1344.3649	271.04306	71.713737	-1403.9666	257.69733	319.59412	-1375.0081	296.96277	305.98901	-1346.131	270.50204	255.4805	-1378.2065	413.48816	688.47046	-1138.7969	321.19934	600.62854	-1231.8483	358.05908	565.36279	-1229.2728	373.3212	620.76117	-1196.7593	427.06131	682.5376	-734.83051	373.15936	572.54376	-645.8219	330.75577	600.83618	-635.62653	373.25964	632.04083	-674.73914	-206.60384	1057.9233	-795.3902	-157.43582	1158.8407	-812.92975	-154.51926	1161.2443	-938.16443	39.354492	1089.6506	-897.63123	360.0087	862.22833	-929.27716	17.080616	949.75378	-907.52649	48.671688	1014.3792	-732.48267	-0.77024102	1006.236	-1050.882	101.92554	487.03238	-657.49329	107.14803	493.36923	-617.94269	106.72477	399.61786	-661.547	71.054039	495.55801	-1164.703	79.266197	501.62692	-1211.3093	75.694977	409.36502	-1165.7286	68.230865	793.32593	-692.50598	101.53822	776.60803	-659.65631	83.44944	851.13751	-679.28699	36.317135	763.68109	-1101.6079	33.733887	840.12616	-1123.6553	47.777893	783.60419	-1146.0149
700	3.495	419.8764	817.93304	-964.69214	419.74362	819.86505	-905.45801	403.27667	826.39185	-934.47571	212.98216	252.00816	196.2211	162.76534	244.34969	-2023.9589	276.88214	34.368877	-1343.5447	116.19784	43.856342	-1456.1167	184.49895	29.853994	-1502.048	146.17899	40.792015	-1483.9163	309.33258	42.887657	-494.76953	142.76219	49.074879	-398.51416	207.07413	32.282177	-349.59631	168.05684	46.352451	-368.60892	249.39821	70.018608	-506.31262	290.40057	72.962914	-437.50131	301.28281	210.94966	-479.90329	283.93796	274.10693	-476.87744	320.55383	265.66602	-511.30396	312.65512	307.63815	-514.13525	226.40402	66.461807	-1344.4507	271.08316	71.69577	-1404.0294	257.72284	319.60074	-1375.4485	296.95551	306.03574	-1346.4843	270.52518	255.47319	-1378.5256	413.96768	687.6994	-1138.8914	321.70834	600.2594	-1232.1138	358.46451	564.99725	-1229.6895	373.85684	620.18774	-1196.8774	427.46649	681.86957	-734.77533	373.37277	572.05292	-645.63635	331.07336	600.45984	-635.57306	373.67194	631.48071	-674.58173	-207.40782	1054.7632	-795.45807	-158.41048	1155.6783	-813.08557	-155.52104	1158.1584	-938.17957	38.394623	1087.292	-897.78888	359.96045	861.10455	-929.35974	16.70159	947.27484	-907.65369	47.860065	1011.9752	-732.6377	-1.7915382	1003.5913	-1051.2053	102.72112	484.71103	-658.0224	107.86097	491.05728	-618.45844	107.44524	397.4422	-662.06903	71.99073	492.61902	-1163.3029	80.039528	498.53033	-1209.9594	76.925789	406.44495	-1164.1073	68.071777	790.93506	-692.8559	101.46204	774.2926	-660.01904	83.157616	848.77301	-679.53821	36.24765	760.87469	-1101.1017	33.45863	837.22321	-1123.4211	47.675285	780.64557	-1145.5732
701	3.5	420.0123	816.92529	-964.73199	419.68115	818.74371	-905.64856	403.50549	825.41577	-934.63684	212.98573	252.01004	196.21861	162.76015	244.34245	-2023.951	276.88568	34.41058	-1343.5648	116.2191	43.855625	-1456.1567	184.52794	29.830978	-1502.0729	146.19809	40.789204	-1483.9502	309.32751	42.912331	-494.76547	142.7704	49.071564	-398.49155	207.07549	32.284832	-349.57785	168.1861	46.315186	-368.53278	249.38805	70.064178	-506.25168	290.3941	72.960968	-437.45828	301.02039	210.90114	-479.86536	283.77097	274.1293	-476.59979	320.58572	265.73676	-510.87607	312.4332	307.70615	-513.81006	226.40948	66.531258	-1344.5231	271.12097	71.671906	-1404.0994	257.74023	319.61621	-1375.856	296.94034	306.06531	-1346.8502	270.5318	255.47159	-1378.8486	414.45715	686.9231	-1138.9706	322.22443	599.90948	-1232.343	358.5809	564.04218	-1229.3494	374.36484	619.68567	-1197.0422	427.8689	681.19177	-734.7226	373.57059	571.578	-645.46381	331.39316	600.13074	-635.55237	374.00397	631.0011	-674.57452	-208.19032	1051.6102	-795.54755	-159.49312	1152.7723	-813.04303	-156.5462	1155.1798	-938.25623	37.462368	1084.9637	-897.9566	359.91187	859.97943	-929.44293	16.323095	944.83978	-907.78204	47.072041	1009.563	-732.7951	-2.4919183	1000.8076	-1051.3336	103.50725	482.41663	-658.56573	108.58576	488.73956	-618.96832	108.40554	395.21463	-662.55139	73.004227	489.67838	-1161.9337	80.822678	495.47964	-1208.6907	78.296043	403.51868	-1162.5697	67.903679	788.58813	-693.21948	101.32298	771.99426	-660.35443	82.785652	846.44672	-679.79785	36.222801	758.07062	-1100.5902	33.155445	834.34491	-1123.194	47.593811	777.72198	-1145.1432
702	3.505	420.14838	815.90485	-964.7453	419.95813	817.65753	-905.8252	403.59488	824.33899	-934.66376	212.98767	252.00584	196.21559	162.7682	244.34653	-2023.9491	276.88083	34.44791	-1343.5924	116.25724	43.855961	-1456.1836	184.56491	29.798864	-1502.1039	146.21608	40.779572	-1483.9961	309.32773	42.945805	-494.74597	142.78816	49.066467	-398.47751	207.10944	32.260483	-349.56207	168.14629	46.30991	-368.54211	249.36482	70.114914	-506.20544	290.39035	72.941544	-437.37457	301.10443	211.06245	-479.49979	283.63574	274.13144	-476.30746	320.20642	265.85321	-510.7442	312.26169	307.76642	-513.49512	226.41003	66.582054	-1344.5962	271.17218	71.65934	-1404.1731	257.78064	319.60236	-1376.2461	296.94592	306.11768	-1347.182	270.56711	255.47353	-1379.1185	414.94321	686.13519	-1139.0564	322.68793	599.57648	-1232.5421	358.93872	563.55273	-1229.554	374.84619	619.12158	-1197.1663	428.27322	680.5379	-734.68616	373.75586	571.11017	-645.28021	331.74606	599.85718	-635.60406	374.39502	630.43677	-674.39893	-208.94873	1048.4882	-795.63434	-160.48592	1149.7737	-813.10327	-157.61525	1152.2402	-938.30444	36.541409	1082.6498	-898.14838	359.85367	858.86285	-929.51593	15.969226	942.44525	-907.95721	46.300652	1007.1884	-732.94977	-3.1783514	998.04669	-1051.4703	104.3076	480.10229	-659.04565	109.32146	486.43546	-619.42468	109.34062	392.97064	-663.01794	73.930626	486.77353	-1160.6594	81.446617	492.466	-1207.4353	79.856468	400.58942	-1161.0603	67.792221	786.22522	-693.54437	101.22032	769.6839	-660.71997	82.524536	844.09229	-680.08618	36.241638	755.2464	-1100.0927	32.856888	831.46759	-1122.9692	47.438789	774.82928	-1144.7278
